<svg version="1.1" xmlns="http://www.w3.org/2000/svg" xmlns:xlink="http://www.w3.org/1999/xlink" width="328" height="328" viewBox="0 0 328 328"><defs><path id="f" fill="black" fill-opacity="0.9" fill-rule="evenodd" d="M 0 10 a10,10 0 0 1 10,-10 h36 a10,10 0 0 1 10,10 v36 a10,10 0 0 1 -10,10 h-36 a10,10 0 0 1 -10,-10 Z M 8 10 a2,2 0 0 1 2,-2 h36 a2,2 0 0 1 2,2 v36 a2,2 0 0 1 -2,2 h-36 a2,2 0 0 1 -2,-2 Z M 16 18 a2,2 0 0 1 2,-2 h20 a2,2 0 0 1 2,2 v20 a2,2 0 0 1 -2,2 h-20 a2,2 0 0 1 -2,-2 Z" /><path id="s" fill="#006AFF" fill-rule="evenodd" d="M 0 9.8 C 0 3.92 3.92 0 9.8 0 L 46.2 0 C 52.08 0 56 3.92 56 9.8 L 56 46.2 C 56 52.08 52.08 56 46.2 56 L 9.8 56 C 3.92 56 0 52.08 0 46.2 Z M 11.2 14 C 11.2 12.32 12.32 11.2 14 11.2 L 42 11.2 C 43.68 11.2 44.8 12.32 44.8 14 L 44.8 42 C 44.8 43.68 43.68 44.8 42 44.8 L 14 44.8 C 12.32 44.8 11.2 43.68 11.2 42 Z M 21 22.4 C 21 21.7 21.7 21 22.4 21 L 33.6 21 C 34.3 21 35 21.7 35 22.4 L 35 33.6 C 35 34.3 34.3 35 33.6 35 L 22.4 35 C 21.7 35 21 34.3 21 33.6 Z" /></defs><rect fill="white" x="0" y="0" width="328" height="328" rx="16" ry="16" /><use xlink:href="#f" x="48" y="48" /><use xlink:href="#f" x="48" y="224" /><use xlink:href="#f" x="224" y="48" /><rect fill="black" fill-opacity="0.9" x="120" y="48" width="8" height="8" rx="2" ry="2" /><path fill="black" fill-opacity="0.9" d="M145 52a3,3 0 0 1 3,-3a3,3 0 0 1 3,3v5h5a3,3 0 0 1 3,3a3,3 0 0 1 -3,3h-5v13a3,3 0 0 1 -3,3a3,3 0 0 1 -3,-3v-5h-5a3,3 0 0 1 -3,-3a3,3 0 0 1 3,-3h5v-13z" /><path fill="black" fill-opacity="0.9" d="M169 52a3,3 0 0 1 3,-3a3,3 0 0 1 3,3v8a3,3 0 0 1 -3,3a3,3 0 0 1 -3,-3v-8z" /><rect fill="black" fill-opacity="0.9" x="200" y="48" width="8" height="8" rx="2" ry="2" /><rect fill="black" fill-opacity="0.9" x="128" y="56" width="8" height="8" rx="2" ry="2" /><path fill="black" fill-opacity="0.9" d="M209 60a3,3 0 0 1 3,-3a3,3 0 0 1 3,3v16a3,3 0 0 1 -3,3h-8a3,3 0 0 1 -3,-3a3,3 0 0 1 3,-3h5v-13z" /><path fill="black" fill-opacity="0.9" d="M177 68a3,3 0 0 1 3,-3h8a3,3 0 0 1 3,3a3,3 0 0 1 -3,3h-5v10h13a3,3 0 0 1 3,3v5h5a3,3 0 0 1 3,3a3,3 0 0 1 -3,3h-5v5a3,3 0 0 1 -3,3a3,3 0 0 1 -3,-3v-5h-10v5a3,3 0 0 1 -3,3a3,3 0 0 1 -3,-3v-5h-5a3,3 0 0 1 -3,-3v-5h-5a3,3 0 0 1 -3,-3a3,3 0 0 1 3,-3h5v-5a3,3 0 0 1 3,-3h5v-5z" /><rect fill="black" fill-opacity="0.9" x="120" y="80" width="8" height="8" rx="2" ry="2" /><path fill="black" fill-opacity="0.9" d="M137 84a3,3 0 0 1 3,-3a3,3 0 0 1 3,3v8a3,3 0 0 1 -3,3a3,3 0 0 1 -3,-3v-8z" /><path fill="black" fill-opacity="0.9" d="M113 92a3,3 0 0 1 3,-3a3,3 0 0 1 3,3v8a3,3 0 0 1 -3,3a3,3 0 0 1 -3,-3v-8z" /><rect fill="black" fill-opacity="0.9" x="152" y="88" width="8" height="8" rx="2" ry="2" /><path fill="black" fill-opacity="0.9" d="M129 100a3,3 0 0 1 3,-3a3,3 0 0 1 3,3v8a3,3 0 0 1 -3,3h-5v13a3,3 0 0 1 -3,3a3,3 0 0 1 -3,-3v-5h-5a3,3 0 0 1 -3,-3a3,3 0 0 1 3,-3h5v-5a3,3 0 0 1 3,-3h5v-5z" /><path fill="black" fill-opacity="0.9" d="M145 100a3,3 0 0 1 3,-3a3,3 0 0 1 3,3v13h10v-13a3,3 0 0 1 3,-3a3,3 0 0 1 3,3v5h5a3,3 0 0 1 3,3v8a3,3 0 0 1 -3,3h-13v5a3,3 0 0 1 -3,3a3,3 0 0 1 -3,-3v-5h-13a3,3 0 0 1 -3,-3a3,3 0 0 1 3,-3h5v-13z" /><rect fill="black" fill-opacity="0.9" x="208" y="96" width="8" height="8" rx="2" ry="2" /><rect fill="black" fill-opacity="0.9" x="184" y="104" width="8" height="8" rx="2" ry="2" /><path fill="black" fill-opacity="0.9" d="M201 108a3,3 0 0 1 3,-3a3,3 0 0 1 3,3v8a3,3 0 0 1 -3,3a3,3 0 0 1 -3,-3v-8z" /><path fill="black" fill-opacity="0.9" d="M49 116a3,3 0 0 1 3,-3a3,3 0 0 1 3,3v5h5a3,3 0 0 1 3,3v5h21a3,3 0 0 1 3,3a3,3 0 0 1 -3,3h-13v5a3,3 0 0 1 -3,3h-5v13a3,3 0 0 1 -3,3a3,3 0 0 1 -3,-3v-5h-5a3,3 0 0 1 -3,-3a3,3 0 0 1 3,-3h5v-10h-5a3,3 0 0 1 -3,-3v-16z" /><rect fill="black" fill-opacity="0.9" x="72" y="112" width="8" height="8" rx="2" ry="2" /><path fill="black" fill-opacity="0.9" d="M89 116a3,3 0 0 1 3,-3h8a3,3 0 0 1 3,3a3,3 0 0 1 -3,3h-8a3,3 0 0 1 -3,-3z" /><path fill="black" fill-opacity="0.9" d="M217 116a3,3 0 0 1 3,-3a3,3 0 0 1 3,3v5h5a3,3 0 0 1 3,3a3,3 0 0 1 -3,3h-5v18h5a3,3 0 0 1 3,3a3,3 0 0 1 -3,3h-13v5a3,3 0 0 1 -3,3h-8a3,3 0 0 1 -3,-3v-21h-5a3,3 0 0 1 -3,-3a3,3 0 0 1 3,-3h8a3,3 0 0 1 3,3v5h10v-10h-5a3,3 0 0 1 -3,-3a3,3 0 0 1 3,-3h5v-5z" /><rect fill="black" fill-opacity="0.9" x="232" y="112" width="8" height="8" rx="2" ry="2" /><rect fill="black" fill-opacity="0.9" x="184" y="120" width="8" height="8" rx="2" ry="2" /><path fill="black" fill-opacity="0.9" d="M249 124a3,3 0 0 1 3,-3a3,3 0 0 1 3,3v5h13a3,3 0 0 1 3,3v13h5a3,3 0 0 1 3,3a3,3 0 0 1 -3,3h-8a3,3 0 0 1 -3,-3v-5h-5a3,3 0 0 1 -3,-3v-5h-5a3,3 0 0 1 -3,-3v-8z" /><rect fill="black" fill-opacity="0.9" x="272" y="120" width="8" height="8" rx="2" ry="2" /><path fill="black" fill-opacity="0.9" d="M97 132a3,3 0 0 1 3,-3h8a3,3 0 0 1 3,3a3,3 0 0 1 -3,3h-8a3,3 0 0 1 -3,-3z" /><rect fill="black" fill-opacity="0.9" x="128" y="128" width="8" height="8" rx="2" ry="2" /><path fill="black" fill-opacity="0.9" d="M89 140a3,3 0 0 1 3,-3a3,3 0 0 1 3,3v5h5a3,3 0 0 1 3,3a3,3 0 0 1 -3,3h-8a3,3 0 0 1 -3,-3v-8z" /><path fill="black" fill-opacity="0.9" d="M233 140a3,3 0 0 1 3,-3h8a3,3 0 0 1 3,3a3,3 0 0 1 -3,3h-8a3,3 0 0 1 -3,-3z" /><path fill="black" fill-opacity="0.9" d="M73 148a3,3 0 0 1 3,-3a3,3 0 0 1 3,3v8a3,3 0 0 1 -3,3a3,3 0 0 1 -3,-3v-8z" /><path fill="black" fill-opacity="0.9" d="M113 148a3,3 0 0 1 3,-3h8a3,3 0 0 1 3,3v8a3,3 0 0 1 -3,3h-8a3,3 0 0 1 -3,-3v-8z" /><rect fill="black" fill-opacity="0.9" x="248" y="144" width="8" height="8" rx="2" ry="2" /><rect fill="black" fill-opacity="0.9" x="232" y="152" width="8" height="8" rx="2" ry="2" /><rect fill="black" fill-opacity="0.9" x="48" y="160" width="8" height="8" rx="2" ry="2" /><rect fill="black" fill-opacity="0.9" x="64" y="160" width="8" height="8" rx="2" ry="2" /><path fill="black" fill-opacity="0.9" d="M89 164a3,3 0 0 1 3,-3h16a3,3 0 0 1 3,3a3,3 0 0 1 -3,3h-13v10h13a3,3 0 0 1 3,3a3,3 0 0 1 -3,3h-16a3,3 0 0 1 -3,-3v-5h-10v5a3,3 0 0 1 -3,3h-24a3,3 0 0 1 -3,-3a3,3 0 0 1 3,-3h21v-5a3,3 0 0 1 3,-3h13v-5z" /><path fill="black" fill-opacity="0.9" d="M225 164a3,3 0 0 1 3,-3a3,3 0 0 1 3,3v8a3,3 0 0 1 -3,3h-5v5a3,3 0 0 1 -3,3a3,3 0 0 1 -3,-3v-5h-10v5a3,3 0 0 1 -3,3a3,3 0 0 1 -3,-3v-8a3,3 0 0 1 3,-3h21v-5z" /><path fill="black" fill-opacity="0.9" d="M249 164a3,3 0 0 1 3,-3h24a3,3 0 0 1 3,3a3,3 0 0 1 -3,3h-5v13a3,3 0 0 1 -3,3a3,3 0 0 1 -3,-3v-13h-10v5a3,3 0 0 1 -3,3a3,3 0 0 1 -3,-3v-8z" /><rect fill="black" fill-opacity="0.9" x="120" y="168" width="8" height="8" rx="2" ry="2" /><path fill="black" fill-opacity="0.9" d="M233 180a3,3 0 0 1 3,-3a3,3 0 0 1 3,3v16a3,3 0 0 1 -3,3a3,3 0 0 1 -3,-3v-5h-5a3,3 0 0 1 -3,-3a3,3 0 0 1 3,-3h5v-5z" /><path fill="black" fill-opacity="0.9" d="M81 188a3,3 0 0 1 3,-3a3,3 0 0 1 3,3v8a3,3 0 0 1 -3,3a3,3 0 0 1 -3,-3v-8z" /><path fill="black" fill-opacity="0.9" d="M113 188a3,3 0 0 1 3,-3h8a3,3 0 0 1 3,3v5h5a3,3 0 0 1 3,3v8a3,3 0 0 1 -3,3a3,3 0 0 1 -3,-3v-5h-5a3,3 0 0 1 -3,-3v-5h-5a3,3 0 0 1 -3,-3z" /><rect fill="black" fill-opacity="0.9" x="248" y="184" width="8" height="8" rx="2" ry="2" /><path fill="black" fill-opacity="0.9" d="M273 188a3,3 0 0 1 3,-3a3,3 0 0 1 3,3v16a3,3 0 0 1 -3,3h-8a3,3 0 0 1 -3,-3v-8a3,3 0 0 1 3,-3h5v-5z" /><rect fill="black" fill-opacity="0.9" x="48" y="192" width="8" height="8" rx="2" ry="2" /><path fill="black" fill-opacity="0.9" d="M65 196a3,3 0 0 1 3,-3a3,3 0 0 1 3,3v5h5a3,3 0 0 1 3,3v5h5a3,3 0 0 1 3,3a3,3 0 0 1 -3,3h-16a3,3 0 0 1 -3,-3v-16z" /><path fill="black" fill-opacity="0.9" d="M97 196a3,3 0 0 1 3,-3h8a3,3 0 0 1 3,3a3,3 0 0 1 -3,3h-8a3,3 0 0 1 -3,-3z" /><rect fill="black" fill-opacity="0.9" x="88" y="200" width="8" height="8" rx="2" ry="2" /><path fill="black" fill-opacity="0.9" d="M145 204a3,3 0 0 1 3,-3a3,3 0 0 1 3,3v5h13a3,3 0 0 1 3,3a3,3 0 0 1 -3,3h-5v21a3,3 0 0 1 -3,3a3,3 0 0 1 -3,-3v-5h-5a3,3 0 0 1 -3,-3v-5h-18v5a3,3 0 0 1 -3,3a3,3 0 0 1 -3,-3v-5h-5a3,3 0 0 1 -3,-3v-8a3,3 0 0 1 3,-3h8a3,3 0 0 1 3,3v5h18v-13z" /><path fill="black" fill-opacity="0.9" d="M177 204a3,3 0 0 1 3,-3h16a3,3 0 0 1 3,3v13h10v-5a3,3 0 0 1 3,-3h5v-5a3,3 0 0 1 3,-3a3,3 0 0 1 3,3v5h21a3,3 0 0 1 3,3v21h18v-10h-5a3,3 0 0 1 -3,-3v-8a3,3 0 0 1 3,-3a3,3 0 0 1 3,3v5h13a3,3 0 0 1 3,3a3,3 0 0 1 -3,3h-5v10h5a3,3 0 0 1 3,3a3,3 0 0 1 -3,3h-29v10h21a3,3 0 0 1 3,3a3,3 0 0 1 -3,3h-5v5a3,3 0 0 1 -3,3h-13v13a3,3 0 0 1 -3,3h-16a3,3 0 0 1 -3,-3a3,3 0 0 1 3,-3h13v-26h-10v5a3,3 0 0 1 -3,3a3,3 0 0 1 -3,-3v-5h-13a3,3 0 0 1 -3,-3v-21h-13a3,3 0 0 1 -3,-3v-13h-13a3,3 0 0 1 -3,-3zM241 215h-26v26h26v-26z" /><rect fill="black" fill-opacity="0.9" x="48" y="208" width="8" height="8" rx="2" ry="2" /><rect fill="black" fill-opacity="0.9" x="96" y="208" width="8" height="8" rx="2" ry="2" /><path fill="black" fill-opacity="0.9" d="M177 220a3,3 0 0 1 3,-3a3,3 0 0 1 3,3v5h5a3,3 0 0 1 3,3a3,3 0 0 1 -3,3h-5v5a3,3 0 0 1 -3,3h-8a3,3 0 0 1 -3,-3a3,3 0 0 1 3,-3h5v-13z" /><rect fill="black" fill-opacity="0.9" x="224" y="224" width="8" height="8" rx="2" ry="2" /><rect fill="black" fill-opacity="0.9" x="112" y="232" width="8" height="8" rx="2" ry="2" /><path fill="black" fill-opacity="0.9" d="M129 236a3,3 0 0 1 3,-3h8a3,3 0 0 1 3,3v5h5a3,3 0 0 1 3,3a3,3 0 0 1 -3,3h-5v5a3,3 0 0 1 -3,3h-13v18h10v-5a3,3 0 0 1 3,-3a3,3 0 0 1 3,3v8a3,3 0 0 1 -3,3h-24a3,3 0 0 1 -3,-3a3,3 0 0 1 3,-3h5v-18h-5a3,3 0 0 1 -3,-3a3,3 0 0 1 3,-3h13v-13z" /><rect fill="black" fill-opacity="0.9" x="192" y="232" width="8" height="8" rx="2" ry="2" /><rect fill="black" fill-opacity="0.9" x="160" y="240" width="8" height="8" rx="2" ry="2" /><path fill="black" fill-opacity="0.9" d="M185 244a3,3 0 0 1 3,-3a3,3 0 0 1 3,3v5h5a3,3 0 0 1 3,3v16a3,3 0 0 1 -3,3h-5v5a3,3 0 0 1 -3,3a3,3 0 0 1 -3,-3v-5h-5a3,3 0 0 1 -3,-3a3,3 0 0 1 3,-3h13v-10h-5a3,3 0 0 1 -3,-3v-8z" /><rect fill="black" fill-opacity="0.9" x="152" y="248" width="8" height="8" rx="2" ry="2" /><rect fill="black" fill-opacity="0.9" x="160" y="256" width="8" height="8" rx="2" ry="2" /><rect fill="black" fill-opacity="0.9" x="272" y="256" width="8" height="8" rx="2" ry="2" /><rect fill="black" fill-opacity="0.9" x="152" y="264" width="8" height="8" rx="2" ry="2" /><path fill="black" fill-opacity="0.9" d="M209 268a3,3 0 0 1 3,-3h8a3,3 0 0 1 3,3a3,3 0 0 1 -3,3h-5v5a3,3 0 0 1 -3,3a3,3 0 0 1 -3,-3v-8z" /><path fill="black" fill-opacity="0.9" d="M265 268a3,3 0 0 1 3,-3a3,3 0 0 1 3,3v8a3,3 0 0 1 -3,3a3,3 0 0 1 -3,-3v-8z" /><path fill="black" fill-opacity="0.9" d="M161 276a3,3 0 0 1 3,-3h8a3,3 0 0 1 3,3a3,3 0 0 1 -3,3h-8a3,3 0 0 1 -3,-3z" /><use xlink:href="#s" x="136" y="136" /></svg>